<svg width="13" height="17" viewBox="0 0 13 17" fill="none" xmlns="http://www.w3.org/2000/svg">
<path d="M5.44185 12.673H0.822849C0.506183 12.673 0.268849 12.53 0.110849 12.244C-0.0478173 11.958 -0.0361508 11.6803 0.145849 11.411L3.31485 6.673H2.91285C2.58485 6.673 2.34218 6.529 2.18485 6.241C2.02752 5.953 2.04652 5.67467 2.24185 5.406L5.75885 0.348C5.84552 0.228 5.94952 0.14 6.07085 0.0839996C6.19218 0.0279996 6.31352 0 6.43485 0C6.55618 0 6.67552 0.0279996 6.79285 0.0839996C6.91018 0.14 7.01285 0.228 7.10085 0.348L10.6188 5.406C10.8135 5.67467 10.8322 5.953 10.6749 6.241C10.5175 6.529 10.2748 6.673 9.94685 6.673H9.54585L12.7129 11.412C12.8949 11.6807 12.9065 11.958 12.7479 12.244C12.5899 12.53 12.3525 12.673 12.0359 12.673H7.41785V15.943C7.41785 16.1497 7.34785 16.323 7.20785 16.463C7.06785 16.603 6.89452 16.673 6.68785 16.673H6.24885C6.02018 16.673 5.82852 16.5957 5.67385 16.441C5.51918 16.2863 5.44185 16.0943 5.44185 15.865V12.673ZM1.17985 11.673H5.17985H3.27985H9.57985H7.67985H11.6798H1.17985ZM1.17985 11.673H11.6798L7.67985 5.673H9.57985L6.42985 1.173L3.27985 5.673H5.17985L1.17985 11.673Z" fill="black"/>
</svg>
