<svg width="27" height="25" viewBox="0 0 27 25" fill="none" xmlns="http://www.w3.org/2000/svg">
<path d="M0.697704 14.1989C0.576718 14.1694 0.455513 14.1339 0.328125 14.1044C1.89584 8.93248 8.73401 0.625529 9.05958 0.230297C9.1795 0.0852001 9.36558 0 9.56295 0C9.76033 0 9.9464 0.0852001 10.0663 0.230297C10.0917 0.259751 12.2843 2.92248 14.4891 6.12841H14.4893C12.8885 6.812 11.5229 7.89228 10.5433 9.24978C9.56359 10.6074 9.00815 12.1895 8.9384 13.8213C8.82359 13.8154 8.70901 13.8154 8.5878 13.8154C7.59683 13.7968 6.60908 13.9263 5.66273 14.1991C4.85809 14.4292 4.01903 14.5387 3.17724 14.5239C2.33736 14.5393 1.50027 14.4298 0.697918 14.1991L0.697704 14.1989Z" fill="#013220"/>
<path d="M15.7799 22.6591C14.0545 24.046 11.8442 24.8055 9.55959 24.7964C7.02521 24.7936 4.59543 23.8596 2.80342 22.1993C1.01119 20.5392 0.00294982 18.2882 0 15.9404C0.0010669 15.715 0.0202711 15.49 0.057401 15.2672C0.121204 15.285 0.191192 15.3026 0.254995 15.3204C1.19943 15.5924 2.18483 15.7221 3.17389 15.7041C4.16487 15.7223 5.1524 15.5928 6.09896 15.3204C6.90344 15.0895 7.74267 14.9798 8.58446 14.9956C8.71825 14.9956 8.84585 14.9956 8.96684 15.0016C9.14715 16.7623 9.89226 18.4327 11.1067 19.7976C12.3208 21.1624 13.9485 22.1591 15.7798 22.659L15.7799 22.6591Z" fill="#013220"/>
<path d="M21.6692 15.1799V16.1953C21.6692 16.4286 21.4652 16.6176 21.2134 16.6176C20.9618 16.6176 20.7578 16.4286 20.7578 16.1953V15.1799C20.7578 14.9468 20.9618 14.7578 21.2134 14.7578C21.4652 14.7578 21.6692 14.9468 21.6692 15.1799Z" fill="#013220"/>
<path d="M18.48 6.49414C16.2828 6.49414 14.1754 7.30282 12.6219 8.74215C11.0681 10.1816 10.1953 12.1339 10.1953 14.1696C10.1953 16.2054 11.0681 18.1574 12.6219 19.5971C14.1755 21.0364 16.283 21.8451 18.48 21.8451C20.6775 21.8451 22.7849 21.0364 24.3387 19.5971C25.8923 18.1576 26.7653 16.2054 26.7653 14.1696C26.7632 12.1347 25.8896 10.1836 24.3363 8.74469C22.7831 7.30576 20.677 6.49647 18.4804 6.4945L18.48 6.49414ZM14.019 13.1599V12.1445C14.019 11.5718 14.3487 11.0426 14.8841 10.7562C15.4195 10.4699 16.079 10.4699 16.6144 10.7562C17.1498 11.0426 17.4795 11.5718 17.4795 12.1445V13.1599C17.4795 13.7326 17.1498 14.2618 16.6144 14.5481C16.0791 14.8345 15.4195 14.8345 14.8841 14.5481C14.3487 14.2618 14.019 13.7327 14.019 13.1599ZM17.2693 17.4876C17.102 17.7746 16.7153 17.8815 16.4057 17.7268C16.0959 17.5718 15.9804 17.2136 16.1475 16.9267L19.691 10.8515C19.8583 10.5645 20.2447 10.4575 20.5545 10.6123C20.8642 10.7673 20.9798 11.1255 20.8127 11.4123L17.2693 17.4876ZM22.9411 16.1945C22.9411 16.7672 22.6112 17.2964 22.0761 17.5828C21.5407 17.8691 20.8811 17.8691 20.3457 17.5828C19.8104 17.2964 19.4805 16.7672 19.4805 16.1945V15.1791C19.4805 14.6064 19.8104 14.0772 20.3457 13.791C20.8811 13.5045 21.5407 13.5045 22.0761 13.791C22.6112 14.0772 22.9411 14.6064 22.9411 15.1791V16.1945ZM15.7463 11.7252C15.4967 11.7262 15.2946 11.9132 15.2937 12.1445V13.16C15.2937 13.393 15.4977 13.582 15.7493 13.582C16.0011 13.582 16.2051 13.393 16.2051 13.16V12.1445C16.2042 12.0324 16.1554 11.9255 16.0694 11.8468C15.9834 11.7681 15.8671 11.7244 15.7463 11.7252Z" fill="#013220"/>
</svg>
