<svg width="20" height="20" viewBox="0 0 20 20" fill="none" xmlns="http://www.w3.org/2000/svg">
<path d="M9.45454 1.93604H2.87879C2.3805 1.93604 1.90263 2.13398 1.55028 2.48632C1.19794 2.83866 1 3.31654 1 3.81482V16.9663C1 17.4646 1.19794 17.9425 1.55028 18.2948C1.90263 18.6472 2.3805 18.8451 2.87879 18.8451H16.0303C16.5286 18.8451 17.0065 18.6472 17.3588 18.2948C17.7111 17.9425 17.9091 17.4646 17.9091 16.9663V10.3906" stroke="white" stroke-width="2" stroke-linecap="round" stroke-linejoin="round"/>
<path d="M15.4433 1.58366C15.817 1.20995 16.3239 1 16.8524 1C17.3809 1 17.8878 1.20995 18.2615 1.58366C18.6352 1.95738 18.8452 2.46424 18.8452 2.99276C18.8452 3.52127 18.6352 4.02813 18.2615 4.40185L9.79475 12.8695C9.57169 13.0924 9.29613 13.2556 8.99345 13.3439L6.29457 14.133C6.21374 14.1566 6.12805 14.158 6.04649 14.1371C5.96492 14.1162 5.89047 14.0738 5.83093 14.0142C5.77139 13.9547 5.72895 13.8803 5.70805 13.7987C5.68716 13.7171 5.68857 13.6314 5.71215 13.5506L6.50124 10.8517C6.59004 10.5493 6.7535 10.2741 6.97657 10.0514L15.4433 1.58366Z" stroke="white" stroke-width="2" stroke-linecap="round" stroke-linejoin="round"/>
</svg>
