<svg width="20" height="23" viewBox="0 0 20 23" fill="none" xmlns="http://www.w3.org/2000/svg">
<path d="M19.25 9.875C19.25 16.1475 12.39 20.3787 10.4063 21.47C10.2439 21.5609 10.061 21.6086 9.875 21.6086C9.68898 21.6086 9.50607 21.5609 9.34375 21.47C7.36 20.3787 0.5 16.1475 0.5 9.875C0.5 4.25 5.0425 0.5 9.875 0.5C14.875 0.5 19.25 4.25 19.25 9.875Z" stroke="#013220"/>
<path d="M5.23245 10.8574L9.5537 15.1786C9.70495 15.3299 9.7812 15.4061 9.87495 15.4061C9.9687 15.4061 10.0449 15.3311 10.1962 15.1786L14.5174 10.8574C15.4524 9.9224 15.5974 8.45739 14.8637 7.35739C13.7199 5.64364 11.1712 5.73115 10.1487 7.5199L9.97245 7.8299C9.96258 7.84703 9.94838 7.86126 9.93126 7.87116C9.91414 7.88106 9.89472 7.88627 9.87495 7.88627C9.85517 7.88627 9.83575 7.88106 9.81863 7.87116C9.80152 7.86126 9.78731 7.84703 9.77745 7.8299L9.6012 7.52114C8.5787 5.73114 6.02995 5.64365 4.8862 7.35865C4.15245 8.45865 4.2987 9.9224 5.23245 10.8574Z" stroke="#013220"/>
</svg>
