<svg width="35" height="33" viewBox="0 0 35 33" fill="none" xmlns="http://www.w3.org/2000/svg">
<path d="M11.2494 16.5001V10.6072H12.4993C13.8248 10.6057 15.0955 10.1085 16.0328 9.2247C16.9701 8.34093 17.4974 7.14273 17.499 5.8929V2.35716H13.7492C12.4693 2.35914 11.2394 2.82645 10.3157 3.66185C9.66842 2.55371 8.71788 1.62948 7.56308 0.985444C6.40828 0.341403 5.09147 0.00110666 3.74979 0H0V3.53574C0.00231564 5.41054 0.793191 7.20793 2.19913 8.53361C3.60508 9.8593 5.51128 10.605 7.49958 10.6072H8.74951V16.5001H0V18.8573H17.499V16.5001H11.2494ZM13.7492 4.71432H14.9992V5.8929C14.9985 6.51786 14.7349 7.11705 14.2662 7.55897C13.7976 8.00089 13.1621 8.24943 12.4993 8.25005H11.2494V7.07148C11.25 6.44651 11.5136 5.84732 11.9823 5.4054C12.451 4.96348 13.0864 4.71494 13.7492 4.71432ZM7.49958 8.25005C6.17408 8.2485 4.90334 7.75131 3.96607 6.86754C3.0288 5.98377 2.50151 4.78557 2.49986 3.53574V2.35716H3.74979C5.07529 2.35872 6.34603 2.8559 7.2833 3.73967C8.22057 4.62344 8.74786 5.82164 8.74951 7.07148V8.25005H7.49958Z" fill="#013220"/>
<path d="M0 22.3926H17.499V24.7497H0V22.3926Z" fill="#013220"/>
<path d="M0 28.2852H17.499V30.6423H0V28.2852Z" fill="#013220"/>
<path d="M28.7514 32.9996C27.4408 33.0034 26.1623 32.6175 25.0976 31.8968C24.033 31.1761 23.2364 30.1573 22.8211 28.9852C22.4059 27.8131 22.393 26.5474 22.7845 25.368C23.1759 24.1887 23.9517 23.1557 25.0016 22.4159V15.3209C25.0016 14.3832 25.3966 13.4838 26.0999 12.8207C26.8031 12.1577 27.7569 11.7852 28.7514 11.7852C29.7459 11.7852 30.6997 12.1577 31.4029 12.8207C32.1061 13.4838 32.5012 14.3832 32.5012 15.3209V22.4159C33.551 23.1557 34.3268 24.1887 34.7183 25.368C35.1097 26.5474 35.0969 27.8131 34.6816 28.9852C34.2663 30.1573 33.4698 31.1761 32.4051 31.8968C31.3405 32.6175 30.062 33.0034 28.7514 32.9996ZM28.7514 14.1423C28.42 14.1426 28.1022 14.2669 27.8679 14.4879C27.6336 14.7088 27.5018 15.0084 27.5014 15.3209V23.7242L26.8802 24.0659C26.3101 24.3711 25.8359 24.8132 25.5059 25.3473C25.1759 25.8815 25.0019 26.4885 25.0016 27.1067C25.0016 28.0444 25.3966 28.9437 26.0999 29.6068C26.8031 30.2699 27.7569 30.6424 28.7514 30.6424C29.7459 30.6424 30.6997 30.2699 31.4029 29.6068C32.1061 28.9437 32.5012 28.0444 32.5012 27.1067C32.5011 26.4883 32.3272 25.881 31.9972 25.3467C31.6672 24.8123 31.1929 24.37 30.6225 24.0648L30.0013 23.7242V15.3209C30.001 15.0084 29.8692 14.7088 29.6348 14.4879C29.4005 14.2669 29.0828 14.1426 28.7514 14.1423Z" fill="#013220"/>
</svg>
