<svg width="17" height="21" viewBox="0 0 17 21" fill="none" xmlns="http://www.w3.org/2000/svg">
<path d="M7.87501 20.6831C7.37176 20.6831 6.94313 20.5061 6.58913 20.1521C6.23513 19.7981 6.05813 19.3691 6.05813 18.8651H9.69188C9.69188 19.3691 9.51488 19.7981 9.16088 20.1521C8.80688 20.5061 8.37826 20.6831 7.87501 20.6831ZM1.81801 16.6151V7.70175C1.81801 6.453 2.15851 5.33025 2.83951 4.3335C3.52126 3.33675 4.40926 2.598 5.50351 2.11725C5.66551 2.0445 5.80501 2.04375 5.92201 2.115C6.03901 2.18625 6.12451 2.28825 6.17851 2.421C6.23326 2.55375 6.24376 2.69438 6.21001 2.84288C6.17626 2.99137 6.06563 3.11512 5.87813 3.21412C5.01113 3.60262 4.30501 4.19362 3.75976 4.98712C3.21526 5.78062 2.94301 6.6855 2.94301 7.70175V16.6151H12.8081V12.0161C12.8081 11.8556 12.8618 11.7218 12.969 11.6145C13.0763 11.5073 13.2101 11.4536 13.3706 11.4536C13.5311 11.4536 13.6646 11.5073 13.7711 11.6145C13.8776 11.7218 13.9316 11.8556 13.9331 12.0161V16.6151H15.1875C15.348 16.6151 15.4819 16.6691 15.5891 16.7771C15.6964 16.8851 15.75 17.0186 15.75 17.1776C15.75 17.3366 15.6964 17.4705 15.5891 17.5793C15.4819 17.688 15.348 17.7416 15.1875 17.7401H0.562508C0.402758 17.7401 0.268883 17.6865 0.160883 17.5793C0.0528829 17.472 -0.000742241 17.3381 7.7586e-06 17.1776C0.000757759 17.0171 0.0543829 16.8836 0.160883 16.7771C0.267383 16.6706 0.401258 16.6166 0.562508 16.6151H1.81801ZM12.168 7.74563C11.8125 7.66613 11.4788 7.54612 11.1668 7.38562C10.8548 7.22512 10.5739 7.00463 10.3241 6.72413L9.78976 6.93338C9.66151 6.97988 9.53776 6.98513 9.41851 6.94913C9.30001 6.91313 9.20401 6.84263 9.13051 6.73763L9.05626 6.58125C8.98276 6.4575 8.95013 6.33262 8.95838 6.20662C8.96663 6.08062 9.03113 5.96962 9.15188 5.87362L9.55351 5.53387C9.42976 5.14612 9.36788 4.75838 9.36788 4.37063C9.36788 3.98213 9.42976 3.594 9.55351 3.20625L9.15076 2.8665C9.04576 2.784 8.98201 2.6775 8.95951 2.547C8.93701 2.4165 8.96213 2.28938 9.03488 2.16563L9.15863 2.00363C9.23213 1.89863 9.32363 1.82775 9.43313 1.791C9.54263 1.75425 9.66151 1.7595 9.78976 1.80675L10.3241 2.016C10.5596 1.73625 10.8371 1.51612 11.1566 1.35562C11.4754 1.19437 11.8125 1.07438 12.168 0.995625L12.2276 0.482625C12.2554 0.349875 12.3206 0.23625 12.4234 0.14175C12.5261 0.0472499 12.6443 0 12.7778 0H12.924C13.0575 0 13.1756 0.0483749 13.2784 0.145125C13.3819 0.241875 13.4471 0.35625 13.4741 0.48825L13.5349 0.9945C13.8896 1.074 14.2268 1.194 14.5463 1.3545C14.8658 1.515 15.1433 1.7355 15.3788 2.016L15.912 1.80675C16.041 1.76025 16.1648 1.755 16.2833 1.791C16.4018 1.827 16.4981 1.89788 16.5724 2.00363L16.6455 2.15888C16.719 2.28263 16.7516 2.4075 16.7434 2.5335C16.7344 2.65875 16.6703 2.76975 16.551 2.8665L16.1483 3.20625C16.272 3.594 16.3339 3.98213 16.3339 4.37063C16.3339 4.75913 16.272 5.14687 16.1483 5.53387L16.551 5.87362C16.656 5.95612 16.7198 6.06263 16.7423 6.19313C16.7648 6.32363 16.74 6.45113 16.668 6.57563L16.5443 6.7365C16.4708 6.8415 16.3793 6.91238 16.2698 6.94913C16.1603 6.98588 16.041 6.98063 15.912 6.93338L15.3776 6.72413C15.1279 7.00388 14.847 7.224 14.535 7.3845C14.223 7.54575 13.8893 7.66575 13.5338 7.7445L13.4741 8.2575C13.4464 8.39025 13.3811 8.50387 13.2784 8.59837C13.1756 8.69287 13.0575 8.74012 12.924 8.74012H12.7778C12.645 8.74012 12.5269 8.69175 12.4234 8.595C12.3206 8.49825 12.2554 8.3835 12.2276 8.25075L12.168 7.74563ZM12.8509 6.79275C13.5274 6.79275 14.1004 6.558 14.5699 6.0885C15.0394 5.619 15.2741 5.046 15.2741 4.3695C15.2741 3.69375 15.0394 3.12112 14.5699 2.65162C14.1004 2.18212 13.5274 1.94737 12.8509 1.94737C12.1744 1.94737 11.6014 2.18212 11.1319 2.65162C10.6624 3.12112 10.4276 3.69375 10.4276 4.3695C10.4276 5.04525 10.6624 5.61825 11.1319 6.0885C11.6014 6.55875 12.1744 6.7935 12.8509 6.79275Z" fill="#013220"/>
</svg>
