<svg width="23" height="20" viewBox="0 0 23 20" fill="none" xmlns="http://www.w3.org/2000/svg">
<path d="M15.7686 13.8324C16.7656 13.2783 16.6364 11.143 15.481 9.0598C14.9854 8.1628 14.376 7.43642 13.7666 6.92861C13.0379 7.46934 12.1553 7.76261 11.2479 7.76549C10.3391 7.76348 9.45487 7.47016 8.72506 6.92861C8.11569 7.43642 7.50794 8.16361 7.01069 9.0598C5.8545 11.1422 5.72694 13.2783 6.72631 13.8324C7.17156 14.0859 7.64119 13.8958 8.12544 13.4294C8.03474 13.9319 7.98932 14.4415 7.98975 14.952C7.98975 17.3392 8.916 19.268 10.0559 19.268C10.7433 19.268 11.0837 18.5652 11.2471 17.4903C11.4096 18.5579 11.7508 19.268 12.4333 19.268C13.5684 19.268 14.5019 17.3384 14.5019 14.952C14.5019 14.4158 14.4516 13.9039 14.3654 13.4302C14.8529 13.8974 15.3209 14.0908 15.7678 13.834L15.7686 13.8324ZM11.2463 6.95299C11.7072 6.95987 12.165 6.875 12.5929 6.70331C13.0207 6.53163 13.4102 6.27655 13.7386 5.95293C14.0669 5.62932 14.3277 5.24362 14.5056 4.8183C14.6835 4.39297 14.775 3.9365 14.7749 3.47547C14.7747 3.01443 14.6828 2.55803 14.5046 2.13283C14.3264 1.70763 14.0654 1.32211 13.7368 0.998729C13.4082 0.675343 13.0186 0.420542 12.5906 0.249155C12.1626 0.0777676 11.7048 -0.00678262 11.2438 0.000424909C10.3311 0.0146961 9.46053 0.387388 8.82021 1.03802C8.17989 1.68866 7.82116 2.56503 7.82148 3.47791C7.8218 4.39078 8.18114 5.2669 8.82192 5.91709C9.46269 6.56727 10.3335 6.93936 11.2463 6.95299ZM18.2289 9.15811C18.9713 9.13641 19.6761 8.82622 20.1936 8.29337C20.7111 7.76053 21.0006 7.04699 21.0006 6.30421C21.0006 5.56142 20.7111 4.84788 20.1936 4.31504C19.6761 3.78219 18.9713 3.472 18.2289 3.4503C17.4718 3.45041 16.7457 3.75128 16.2104 4.28672C15.6751 4.82215 15.3745 5.54831 15.3746 6.30542C15.3747 7.06254 15.6755 7.78861 16.211 8.3239C16.7464 8.85918 17.4726 9.15984 18.2297 9.15974L18.2289 9.15811ZM21.7064 10.8887C21.2985 10.151 20.7996 9.55461 20.2991 9.1378C19.7004 9.58139 18.9756 9.82195 18.2305 9.82436C17.6162 9.82436 17.0442 9.65617 16.5437 9.37749C16.9467 10.2655 17.1962 11.165 17.2425 11.9694C17.3189 13.2011 16.9338 14.1144 16.1635 14.5409C15.9985 14.6319 15.819 14.6935 15.6329 14.7229C15.5866 15.0414 15.5549 15.3729 15.5549 15.7223C15.5549 17.6829 16.3146 19.2664 17.2514 19.2664C17.8153 19.2664 18.0964 18.6895 18.2297 17.8072C18.3621 18.6847 18.6424 19.2664 19.2047 19.2664C20.135 19.2664 20.9028 17.682 20.9028 15.7239C20.9028 15.2827 20.8598 14.8627 20.7891 14.4727C21.1888 14.857 21.5739 15.0154 21.9412 14.8042C22.7594 14.3492 22.6537 12.5958 21.7056 10.8879L21.7064 10.8887ZM4.26362 9.15811C4.82792 9.15779 5.37946 8.99016 5.8485 8.67642C6.31754 8.36268 6.68303 7.91691 6.89876 7.39547C7.11448 6.87404 7.17076 6.30034 7.06047 5.74693C6.95019 5.19351 6.67829 4.68522 6.27915 4.28631C5.88002 3.8874 5.37157 3.61579 4.81809 3.50582C4.26461 3.39585 3.69095 3.45246 3.16964 3.66848C2.64832 3.8845 2.20276 4.25024 1.88929 4.71946C1.57581 5.18868 1.4085 5.74031 1.4085 6.30461C1.40871 7.06177 1.70959 7.78786 2.24498 8.32325C2.78038 8.85864 3.50646 9.15952 4.26362 9.15974V9.15811ZM6.32331 14.5385C5.02981 13.8194 4.91119 11.6752 5.95281 9.37586C5.43798 9.66823 4.85649 9.82297 4.26444 9.82517C3.48769 9.82517 2.77594 9.56517 2.19256 9.1378C1.69287 9.5538 1.19481 10.1502 0.785312 10.8871C-0.162875 12.5966 -0.266875 14.35 0.552125 14.8034C0.91775 15.013 1.30369 14.8562 1.701 14.4735C1.62871 14.8861 1.59201 15.3042 1.59131 15.7231C1.59131 17.6829 2.351 19.2656 3.28781 19.2656C3.85169 19.2656 4.13281 18.6887 4.26606 17.8072C4.40012 18.6847 4.68044 19.2664 5.24106 19.2664C6.173 19.2664 6.93919 17.682 6.93919 15.7239C6.93919 15.3721 6.90669 15.0398 6.86037 14.7213C6.67225 14.692 6.49074 14.6298 6.32412 14.5377L6.32331 14.5385Z" fill="#013220"/>
</svg>
