<svg width="22" height="20" viewBox="0 0 22 20" fill="none" xmlns="http://www.w3.org/2000/svg">
<path d="M20.625 13.75H22V20H13.75V13.75H15.125V12.5C15.125 12.1549 15.1966 11.8327 15.3398 11.5332C15.4831 11.2337 15.68 10.9668 15.9307 10.7324C16.1813 10.498 16.4714 10.319 16.8008 10.1953C17.1302 10.0716 17.4883 10.0065 17.875 10C18.2546 10 18.609 10.0651 18.9385 10.1953C19.2679 10.3255 19.5615 10.5046 19.8193 10.7324C20.0771 10.9603 20.2741 11.224 20.4102 11.5234C20.5462 11.8229 20.6178 12.1484 20.625 12.5V13.75ZM16.5 12.5V13.75H19.25V12.5C19.25 12.3242 19.2142 12.1615 19.1426 12.0117C19.071 11.862 18.9743 11.7318 18.8525 11.6211C18.7308 11.5104 18.584 11.4193 18.4121 11.3477C18.2402 11.276 18.0612 11.2435 17.875 11.25C17.6816 11.25 17.5026 11.2826 17.3379 11.3477C17.1732 11.4128 17.0299 11.5007 16.9082 11.6113C16.7865 11.722 16.6862 11.8555 16.6074 12.0117C16.5286 12.168 16.4928 12.3307 16.5 12.5ZM20.625 18.75V15H15.125V18.75H20.625ZM9.625 17.5H6.875V13.75H9.625V17.5ZM5.5 17.5H2.75V11.25H5.5V17.5ZM0 0H10.6025L16.5 5.36133V8.75H15.125V6.25H9.625V1.25H1.375V18.75H12.375V20H0V0ZM11 2.13867V5H14.1475L11 2.13867ZM13.75 8.75V12.5H12.375V17.5H11V8.75H13.75Z" fill="#013220"/>
</svg>
