<svg width="41" height="32" viewBox="0 0 41 32" fill="none" xmlns="http://www.w3.org/2000/svg">
<path d="M20.059 9.84766C15.786 9.84766 12.3438 12.5936 12.3438 16.0023C12.3438 19.4111 15.7859 22.157 20.059 22.157C24.3321 22.157 27.7742 19.4111 27.7742 16.0023C27.7742 12.5936 24.3321 9.84766 20.059 9.84766ZM20.059 21.21V10.7945C23.6792 10.7945 26.5874 13.1144 26.5874 16.0024C26.5874 18.8904 23.6793 21.2103 20.059 21.2103V21.21Z" fill="#013220"/>
<path d="M19.4688 25.5645H20.6556V31.9559H19.4688V25.5645Z" fill="#013220"/>
<path d="M19.4688 0H20.6556V6.39147H19.4688V0Z" fill="#013220"/>
<path d="M0 15.5293H8.01209V16.4761H0V15.5293Z" fill="#013220"/>
<path d="M32.0469 15.5293H40.059V16.4761H32.0469V15.5293Z" fill="#013220"/>
<path d="M5.51562 26.9627L11.1808 22.4434L12.02 23.1128L6.35475 27.6321L5.51562 26.9627Z" fill="#013220"/>
<path d="M28.1016 8.89041L33.7668 4.37109L34.6059 5.04049L28.9407 9.5598L28.1016 8.89041Z" fill="#013220"/>
<path d="M5.47656 5.06783L6.31569 4.39844L11.9809 8.91775L11.1418 9.58715L5.47656 5.06783Z" fill="#013220"/>
<path d="M28.1328 23.0854L28.9719 22.416L34.6372 26.9353L33.798 27.6047L28.1328 23.0854Z" fill="#013220"/>
</svg>
