<svg width="19" height="19" viewBox="0 0 19 19" fill="none" xmlns="http://www.w3.org/2000/svg">
<path d="M10.3688 12.905C10.3688 13.2365 10.2371 13.5545 10.0026 13.7889C9.76822 14.0233 9.45027 14.155 9.11875 14.155C8.78723 14.155 8.46929 14.0233 8.23487 13.7889C8.00045 13.5545 7.86875 13.2365 7.86875 12.905V12.845C7.86875 12.5135 8.00045 12.1955 8.23487 11.9611C8.46929 11.7267 8.78723 11.595 9.11875 11.595C9.45027 11.595 9.76822 11.7267 10.0026 11.9611C10.2371 12.1955 10.3688 12.5135 10.3688 12.845V12.905ZM9.74375 4.75H8.5225V9.75H9.74375V4.75ZM18.25 9.125C18.25 10.9298 17.7148 12.694 16.7122 14.1946C15.7095 15.6952 14.2844 16.8648 12.617 17.5554C10.9496 18.2461 9.11488 18.4268 7.3448 18.0747C5.57473 17.7226 3.94881 16.8535 2.67265 15.5773C1.3965 14.3012 0.527429 12.6753 0.175338 10.9052C-0.176752 9.13512 0.00395373 7.30039 0.694603 5.63301C1.38525 3.96564 2.55483 2.54051 4.05543 1.53784C5.55602 0.535172 7.32025 0 9.125 0C11.5451 0 13.8661 0.961381 15.5774 2.67265C17.2886 4.38392 18.25 6.7049 18.25 9.125ZM17 9.125C17 7.56747 16.5381 6.04492 15.6728 4.74988C14.8075 3.45485 13.5776 2.44549 12.1386 1.84945C10.6997 1.25341 9.11627 1.09746 7.58867 1.40132C6.06107 1.70517 4.65788 2.4552 3.55654 3.55653C2.4552 4.65787 1.70518 6.06106 1.40132 7.58866C1.09746 9.11626 1.25341 10.6997 1.84945 12.1386C2.44549 13.5776 3.45485 14.8075 4.74989 15.6728C6.04493 16.5381 7.56748 17 9.125 17C11.2129 16.9977 13.2146 16.1673 14.6909 14.6909C16.1673 13.2146 16.9977 11.2129 17 9.125Z" fill="black"/>
</svg>
