<svg width="31" height="31" viewBox="0 0 31 31" fill="none" xmlns="http://www.w3.org/2000/svg">
<path d="M19.9281 0C19.9763 0.96293 20.0775 3.30438 20.0951 6.36539C20.319 6.34696 20.5177 6.34083 20.7216 6.435C21.8843 6.97286 22.4774 8.32515 22.4635 9.69027C22.4495 11.0554 21.7362 12.535 20.1364 13.1905C20.0837 13.212 20.0302 13.2319 19.9762 13.25C19.7566 18.4388 19.183 23.9731 17.8007 27.7842C17.3575 28.8046 16.7031 29.6673 16.0715 30.4229L19.6338 30.4501C20.9665 29.6644 21.699 28.6844 21.9748 27.459L23.1064 27.7139C22.8699 28.7652 22.3337 29.6901 21.5266 30.4645L30.7468 30.5351C30.4161 29.5989 29.7052 27.5379 29.4347 26.0094C27.9476 17.6072 27.8354 1.61184 27.8274 0H19.9281ZM0 1.22409L0.0567832 2.43098C1.20766 3.20745 2.12154 3.97205 3.01963 4.72081C3.85024 4.00177 3.17457 2.80494 2.64451 2.20127C1.76357 1.8567 0.882686 1.52657 0 1.22409ZM4.41143 2.90929C4.71887 3.84772 4.62715 4.82071 3.92951 5.47104C5.48316 6.72652 7.20579 7.92999 10.1879 9.05689C11.0797 7.60102 10.9665 6.23049 9.97277 5.14207C8.10169 4.43953 6.25363 3.65984 4.41143 2.90929ZM2.36691 5.68V24.4927H3.52681V6.62133C3.12804 6.30835 2.74603 5.99427 2.36691 5.68ZM11.7296 5.77242C11.9393 6.30629 12.0222 6.85227 11.9863 7.38652C11.937 8.11807 11.6851 8.81319 11.3066 9.45515C12.3976 9.82195 13.6393 10.1801 15.074 10.5286L15.2418 10.5694L15.36 10.6953C15.9545 11.3286 16.8125 11.8043 17.6461 12.0492C18.4797 12.2941 19.2879 12.2848 19.6966 12.1173C20.8583 11.6413 21.2933 10.6759 21.3036 9.67835C21.3134 8.72302 20.8479 7.83795 20.3059 7.53167C17.3488 7.42216 14.5085 6.71911 11.7296 5.77242ZM9.58566 10.057V24.4927H10.7456V10.4809C10.3563 10.347 9.96957 10.2057 9.58566 10.057ZM0.884361 25.7174V26.8773H12.2281V25.7174H0.884361Z" fill="#013220"/>
</svg>
