<svg width="23" height="24" viewBox="0 0 23 24" fill="none" xmlns="http://www.w3.org/2000/svg">
<path d="M0 21.9375H6.5V23.625H0V21.9375ZM12.1875 22.7812C12.0658 22.7812 11.9456 22.7527 11.836 22.6979C11.7263 22.6432 11.6298 22.5635 11.5537 22.4648L8.5475 18.5625H0V16.875H8.9375C9.05921 16.8751 9.17935 16.9036 9.28904 16.9583C9.39874 17.0131 9.49518 17.0927 9.57125 17.1914L12.1282 20.509L16.3865 13.8755C16.4586 13.7632 16.5556 13.6705 16.6693 13.6053C16.783 13.54 16.9101 13.504 17.04 13.5002C17.1699 13.4965 17.2988 13.5252 17.4158 13.5839C17.5328 13.6426 17.6346 13.7295 17.7125 13.8375L19.9062 16.875H22.75V18.5625H19.5C19.3739 18.5625 19.2495 18.532 19.1366 18.4734C19.0238 18.4148 18.9257 18.3298 18.85 18.225L17.1015 15.8034L12.8635 22.4058C12.7926 22.5162 12.6976 22.6077 12.5862 22.6728C12.4748 22.7379 12.3502 22.7748 12.2224 22.7804L12.1875 22.7812ZM7.3125 11.8125V7.59375H8.125C8.98662 7.59263 9.81265 7.2367 10.4219 6.604C11.0312 5.97131 11.3739 5.11351 11.375 4.21875V1.6875H8.9375C8.10548 1.68892 7.30604 2.02347 6.70556 2.62153C6.28482 1.82821 5.66694 1.16656 4.91628 0.705484C4.16562 0.244412 3.30964 0.000792265 2.4375 0H0V2.53125C0.00150525 3.87343 0.515603 5.16019 1.42952 6.10925C2.34343 7.05832 3.58253 7.59219 4.875 7.59375H5.6875V11.8125H0V13.5H11.375V11.8125H7.3125ZM8.9375 3.375H9.75V4.21875C9.74957 4.66617 9.57823 5.09513 9.27357 5.4115C8.96892 5.72787 8.55584 5.9058 8.125 5.90625H7.3125V5.0625C7.31293 4.61508 7.48427 4.18612 7.78893 3.86975C8.09358 3.55338 8.50666 3.37545 8.9375 3.375ZM4.875 5.90625C4.01338 5.90513 3.18735 5.5492 2.57809 4.9165C1.96883 4.28381 1.62608 3.42601 1.625 2.53125V1.6875H2.4375C3.29912 1.68862 4.12515 2.04455 4.73441 2.67725C5.34367 3.30994 5.68643 4.16774 5.6875 5.0625V5.90625H4.875Z" fill="#013220"/>
</svg>
