<svg width="29" height="26" viewBox="0 0 29 26" fill="none" xmlns="http://www.w3.org/2000/svg">
<path d="M12.3684 19.6667L9.52632 18.3333M9.52632 18.3333L1 22.3333V5L9.52632 1M9.52632 18.3333V1M9.52632 1L18.0526 5M18.0526 5L26.579 1V11M18.0526 5V11.6667M25.4421 22.6L28 25M18.0526 19.6667C18.0526 20.7275 18.5018 21.7449 19.3013 22.4951C20.1008 23.2452 21.1851 23.6667 22.3158 23.6667C23.4465 23.6667 24.5308 23.2452 25.3303 22.4951C26.1298 21.7449 26.579 20.7275 26.579 19.6667C26.579 18.6058 26.1298 17.5884 25.3303 16.8382C24.5308 16.0881 23.4465 15.6667 22.3158 15.6667C21.1851 15.6667 20.1008 16.0881 19.3013 16.8382C18.5018 17.5884 18.0526 18.6058 18.0526 19.6667Z" stroke="black" stroke-width="2" stroke-linecap="round" stroke-linejoin="round"/>
</svg>
