<svg width="41" height="20" viewBox="0 0 41 20" fill="none" xmlns="http://www.w3.org/2000/svg">
<path d="M21.5665 3.71233C21.5665 3.71233 17.6723 0.25 11.9804 0.25C6.28852 0.25 2.86829 4.55735 0.25 8.12837C1.65706 9.88108 7.02387 13.409 11.6553 13.409C16.2868 13.409 18.4723 10.6605 21.3295 7.54381C24.1857 4.42713 27.1076 1.87444 30.2889 1.87444C33.4702 1.87444 35.267 1.895 40.3958 5.27215C37.3663 12.4132 30.7001 15.5084 27.8224 15.5084C25.7661 15.5084 23.9958 15.3879 21.1346 13.9711C21.1346 13.9711 17.9524 15.6591 17.7369 19.5112C17.3041 16.2652 18.1061 12.5297 22.1951 11.9589C24.363 11.6553 26.0765 12.4563 26.0765 12.4563" stroke="black" stroke-width="0.5" stroke-linecap="round" stroke-linejoin="round"/>
</svg>
